<svg width="180" height="37" viewBox="0 0 180 37" fill="none" xmlns="http://www.w3.org/2000/svg">
  <g clip-path="url(#clip0_907_17389)">
    <path d="M36.748 37H18.3727V34.9876H34.7493V12.9119C33.0005 17.9302 30.1349 22.5185 26.28 26.3696C19.5445 33.101 10.5655 36.8063 0.999334 36.8063H0V0H27.062V2.01237H1.99867V34.7814C10.6604 34.5323 18.7475 31.061 24.8734 24.9409C31.2417 18.5767 34.7493 10.077 34.7493 1.00619H36.748V37Z" fill="white"/>
    <path d="M64.3562 23.2755V22.2592C63.4742 23.8138 61.648 25.2803 58.7849 25.2803C54.2779 25.2803 51.4473 22.0504 51.4473 17.6207C51.4473 12.9545 54.5827 9.87305 58.8149 9.87305C61.7079 9.87305 63.3818 10.9597 64.3562 12.3961H64.7809L65.1956 10.2906H66.8245V22.8856C66.8245 28.1504 64.4511 31.652 58.9997 31.652C55.1648 31.652 52.6989 29.139 51.9669 26.5053H54.5552C55.0424 27.9416 56.2616 29.6471 59.2121 29.6471C62.7447 29.6471 64.3562 27.1945 64.3562 23.2755ZM64.3562 17.4999C64.3562 14.1795 62.4075 11.9055 59.272 11.9055C56.1366 11.9055 54.1879 14.2399 54.1879 17.5905C54.1879 20.9411 56.0142 23.2755 59.272 23.2755C62.1027 23.2755 64.3562 21.1801 64.3562 17.4999Z" fill="white"/>
    <path d="M70.8442 18.5489C71.0565 22.2894 73.0977 24.3823 76.3855 24.3823C78.7914 24.3823 80.2529 23.0667 81.0124 21.5398H83.5707C82.5963 24.3219 79.9481 26.3871 76.3255 26.3871C71.3014 26.3871 68.3184 22.9459 68.3184 18.1892C68.3184 13.4324 71.5137 9.87305 76.3555 9.87305C81.622 9.87305 83.9354 13.8223 83.9354 18.0106C83.9354 18.3401 83.9055 18.4608 83.9055 18.5489H70.8442ZM81.2872 16.6925C80.9524 13.85 79.4609 11.815 76.293 11.815C73.1252 11.815 71.3613 13.7896 70.9641 16.6925H81.2847H81.2872Z" fill="white"/>
    <path d="M85.4595 18.1614C85.4595 13.3745 88.565 9.87549 93.5566 9.87549C98.5483 9.87549 101.654 13.3745 101.654 18.1614C101.654 22.9484 98.5783 26.387 93.4942 26.387C88.4101 26.387 85.457 22.9459 85.457 18.1614H85.4595ZM98.9156 18.1312C98.9156 14.5115 96.9369 11.8778 93.4967 11.8778C90.0565 11.8778 88.0478 14.5115 88.0478 18.1312C88.0478 21.751 89.9965 24.3847 93.4967 24.3847C96.9968 24.3847 98.9156 21.8717 98.9156 18.1312Z" fill="white"/>
    <path d="M103.364 25.9999V4.6084H116.515V6.82201H105.95V13.9131H115.783V16.1267H105.95V25.9999H103.361H103.364Z" fill="white"/>
    <path d="M118.314 4.6084H120.84V25.9999H118.314V4.6084Z" fill="white"/>
    <path d="M136.247 23.6052C136.247 24.4127 136.247 25.1925 136.277 26H134.685L134.236 24.2215H133.811C133.081 25.5069 131.497 26.42 128.757 26.42C125.072 26.42 123.338 24.0857 123.338 20.1087V10.2959H125.864V19.3616C125.864 22.4733 127.02 24.4177 129.731 24.4177C132.442 24.4177 133.718 22.2645 133.718 19.7515V10.2984H136.244V23.6103L136.247 23.6052Z" fill="white"/>
    <path d="M137.498 26.0005C138.32 24.9239 141.578 20.5545 143.344 18.0114L137.773 10.2939H140.726C141.306 11.192 143.374 14.213 144.776 16.1575C146.115 14.213 147.576 12.1177 148.796 10.2939H151.536C150.015 12.4195 147.639 15.589 146.087 17.7422C147.701 20.0464 150.29 23.7542 151.993 26.0005H149.01C147.794 24.2347 145.965 21.5733 144.656 19.5685C143.439 21.3922 141.216 24.5944 140.271 26.0005H137.501H137.498Z" fill="white"/>
    <path d="M169.62 21.243C170.2 23.278 171.416 24.415 173.852 24.415C176.043 24.415 177.537 23.366 177.537 21.8115C177.537 20.2569 176.228 19.8066 174.157 19.2381L172.268 18.73C169.71 18.0106 167.731 17.1453 167.731 14.421C167.731 11.6968 170.197 9.87305 173.667 9.87305C176.925 9.87305 179.209 11.2188 179.696 14.421H177.323C176.865 12.8665 175.709 11.8175 173.607 11.8175C171.506 11.8175 170.26 12.8061 170.26 14.0915C170.26 15.4976 171.386 16.0661 173.455 16.6346L175.464 17.2031C178.234 18.0106 180.001 18.9992 180.001 21.5121C180.001 24.5936 177.442 26.3594 173.79 26.3594C170.137 26.3594 167.854 24.8627 167.154 21.243H169.62Z" fill="white"/>
    <path d="M165.874 23.6052C165.874 24.4127 165.874 25.1925 165.904 26H164.312L163.863 24.2215H163.438C162.708 25.5069 161.124 26.42 158.384 26.42C154.699 26.42 152.965 24.0857 152.965 20.1087V10.2959H155.491V19.3616C155.491 22.4733 156.647 24.4177 159.358 24.4177C162.069 24.4177 163.345 22.2645 163.345 19.7515V10.2984H165.871V23.6103L165.874 23.6052Z" fill="white"/>
  </g>
  <defs>
    <clipPath id="clip0_907_17389">
    <rect width="180" height="37" fill="white"/>
    </clipPath>
  </defs>
</svg>